# xmcd
#
# Track frame offsets:
#	150
#	70087
#	94175
#	114550
#	130577
#	149150
#	172175
#	189950
#	209725
#	228200
#	247700
#	265510
#
# Disc length: 3860 seconds
#
# Revision: 1
# Processed by: cddbd v1.5.1PL0 Copyright (c) Steve Scherf et al.
# Submitted via: MusicManager 7.0.3.0 
#
DISCID=a80f120c
DTITLE=Various Artist - Merengue Bailando Mix
DYEAR=1994
DGENRE=Salsa
TTITLE0=Various Artist - Merengue Bailandomix Long Version
TTITLE1=Jossie Esteban Y La P 15 - Por un mani
TTITLE2=Iris Y Franklyn Rivers - Loca Adventurera
TTITLE3=Victor Roque Y La Gran Manzana - Tu Maquinita
TTITLE4=Zona Roja - Hueso Na Mas
TTITLE5=Various Artist - Merengue Bailandomix Radio Version
TTITLE6=Caracas - La Catira
TTITLE7=La Banda Loca - Los Zapatos De Manacho
TTITLE8=La Sabrosa - El Velorio
TTITLE9=Johnny Ventura - Capullo  Y Sorullo
TTITLE10=Caracas - Bailando
TTITLE11=Bonny Cepeda - El Japones
EXTD=YEAR: 1994
EXTT0=
EXTT1=
EXTT2=
EXTT3=
EXTT4=
EXTT5=
EXTT6=
EXTT7=
EXTT8=
EXTT9=
EXTT10=
EXTT11=
PLAYORDER=
